<svg width="37" height="37" viewBox="0 0 37 37" fill="none" xmlns="http://www.w3.org/2000/svg">
<g clip-path="url(#clip0)">
<path d="M34.5571 2.01342H23.2004C22.1694 2.01342 21.3325 2.85734 21.3325 3.89718V15.3504C21.3325 16.3903 22.1694 17.2342 23.2004 17.2342H28.636C28.565 20.2332 27.8739 22.6331 26.5663 24.4377C25.5353 25.8618 23.9738 27.0411 21.8854 27.9716C20.9253 28.3974 20.5107 29.5427 20.959 30.4997L22.3038 33.363C22.7372 34.2822 23.8094 34.6854 24.7358 34.2822C27.2089 33.2047 29.2972 31.8409 31.0007 30.1832C33.0778 28.16 34.5011 25.8769 35.2707 23.3301C36.0403 20.7832 36.425 17.3096 36.425 12.9016V3.89718C36.425 2.85738 35.5882 2.01342 34.5571 2.01342Z" fill="#373F51"/>
<path d="M3.96129 34.2747C6.40447 33.201 8.48155 31.8372 10.1963 30.1832C12.292 28.16 13.7228 25.8844 14.4924 23.3564C15.2619 20.8284 15.6467 17.3435 15.6467 12.9016V3.89718C15.6467 2.85734 14.8099 2.01342 13.7788 2.01342H2.42212C1.39105 2.01342 0.55424 2.85734 0.55424 3.89718V15.3504C0.55424 16.3903 1.39105 17.2342 2.42212 17.2342H7.85764C7.78666 20.2332 7.09555 22.6331 5.78803 24.4377C4.75696 25.8618 3.19542 27.0411 1.10713 27.9716C0.147043 28.3974 -0.267626 29.5427 0.180665 30.4997L1.5218 33.3555C1.95519 34.2747 3.03482 34.6816 3.96129 34.2747Z" fill="#373F51"/>
</g>
<defs>
<clipPath id="clip0">
<rect width="36.425" height="36.4517" fill="white"/>
</clipPath>
</defs>
</svg>
