<svg width="46" height="46" viewBox="0 0 46 46" fill="none" xmlns="http://www.w3.org/2000/svg">
<g clip-path="url(#clip0)">
<path d="M33.2599 25.7094C33.1395 24.974 32.8024 24.2645 32.2356 23.6977C31.4187 22.8808 30.3165 22.5436 29.2514 22.6529L35.0141 16.8901C36.4553 15.449 36.4553 13.0909 35.0141 11.6516C33.573 10.2104 31.2149 10.2104 29.7756 11.6516L17.3127 24.1145L17.3145 22.2602C17.3145 20.217 16.4865 18.3665 15.1472 17.0272C14.1784 16.0584 12.941 15.3619 11.5573 15.047C11.4628 15.0211 11.3609 15.0118 11.2554 15.0118C10.5107 15.0099 9.90682 15.6138 9.90682 16.3603L9.90497 34.0025C9.90497 34.0044 9.90497 34.0099 9.90497 34.0155V34.3063L9.91793 34.2952C9.98647 37.2664 11.1461 40.2192 13.4153 42.4865C18.1 47.1712 25.6911 47.1712 30.3758 42.4865L34.6844 38.1778C35.6477 37.2146 35.9626 35.8494 35.6365 34.6157L33.2599 25.7094ZM33.3748 36.8663L29.0661 41.175C25.1113 45.1299 18.6798 45.1299 14.7267 41.175C12.8836 39.3319 11.8333 36.8719 11.7703 34.2507L11.7592 17.0253C12.5372 17.2995 13.2467 17.7478 13.8357 18.3387C14.8842 19.3871 15.4621 20.7783 15.4603 22.2621V25.6853C15.4603 26.0039 15.6474 26.2947 15.9382 26.4244C16.6162 26.7282 17.4331 26.6115 17.9907 26.0539L31.0852 12.9593C31.8077 12.2369 32.9839 12.2369 33.7045 12.9593C34.4269 13.6818 34.4269 14.858 33.7045 15.5786L26.1041 23.179C25.8281 23.455 25.754 23.8773 25.9226 24.2312C26.0912 24.585 26.4635 24.7943 26.8525 24.7554L29.4403 24.4942C29.7719 24.4608 30.4035 24.4831 30.9278 25.0073C31.2649 25.3444 31.389 25.7409 31.4335 26.0113L33.8379 35.0917C34.0101 35.7419 33.836 36.4051 33.3748 36.8663Z" fill="#373F51"/>
<path d="M20.986 0L19.6763 1.30964L23.0292 4.66247H13.6079V6.51486H23.0292L19.6838 9.86214L20.9934 11.1718L26.5746 5.58867L20.986 0Z" fill="#373F51"/>
</g>
<defs>
<clipPath id="clip0">
<rect width="46" height="46" fill="white"/>
</clipPath>
</defs>
</svg>
