<svg width="20" height="20" viewBox="0 0 20 20" fill="none" xmlns="http://www.w3.org/2000/svg">
<path d="M8.24354 16.4718C3.70225 16.4718 0.00765991 12.7772 0.00765991 8.23588C0.00765991 3.69459 3.70225 0 8.24354 0C12.7848 0 16.4794 3.69459 16.4794 8.23588C16.4794 12.7772 12.7848 16.4718 8.24354 16.4718ZM8.24354 1.5613C4.56315 1.5613 1.56896 4.5555 1.56896 8.23588C1.56896 11.9163 4.56315 14.9105 8.24354 14.9105C11.9239 14.9105 14.9181 11.9163 14.9181 8.23588C14.9181 4.5555 11.9239 1.5613 8.24354 1.5613ZM19.7637 19.7713C20.0686 19.4665 20.0686 18.9722 19.7637 18.6673L16.2703 15.1739C15.9654 14.869 15.4711 14.869 15.1663 15.1739C14.8614 15.4788 14.8614 15.9731 15.1663 16.2779L18.6597 19.7713C18.8121 19.9238 19.0119 20 19.2117 20C19.4115 20 19.6113 19.9238 19.7637 19.7713Z" fill="#F6F7F8"/>
</svg>
