<svg xmlns="http://www.w3.org/2000/svg" viewBox="0 0 48 48" width="48px" height="48px"><path fill="#3F51B5" d="M38,13c0,0.553-0.447,1-1,1H5c-0.552,0-1-0.447-1-1V6c0-0.553,0.448-1,1-1h32c0.553,0,1,0.447,1,1V13z"/><path fill="#BBDEFB" d="M4 10H38V39H4z"/><path fill="#E57373" d="M43.678,25.142l-2.82-2.819c-0.429-0.43-1.126-0.43-1.555,0l-1.328,1.328l4.376,4.375l1.327-1.328C44.107,26.268,44.107,25.572,43.678,25.142"/><path fill="#FF9800" d="M23.109 31.089H40.525000000000006V37.277H23.109z" transform="rotate(-45.001 31.818 34.184)"/><path fill="#B0BEC5" d="M37.521 23.837H40.615V30.026H37.521z" transform="rotate(134.983 39.068 26.933)"/><path fill="#FFC107" d="M23.473 38.152L22 44 27.848 42.528z"/><path fill="#37474F" d="M22.744 41.044L22 44 24.956 43.256z"/><path fill="#1976D2" d="M27.796 31L15 31 15 33 25.797 33zM31 27.796L31 27 15 27 15 29 29.796 29zM15 19H31V21H15zM15 15H31V17H15zM11 15H13V17H11zM11 19H13V21H11zM11 31H13V33H11z"/><path fill="#1976D2" d="M15 31v2h7c0-.684.071-1.351.191-2H15zM11 23H13V25H11zM11 27H13V29H11zM15 23H31V25H15z"/></svg>